<?xml version="1.0" standalone="no"?>
<!DOCTYPE svg PUBLIC "-//W3C//DTD SVG 20010904//EN"
 "http://www.w3.org/TR/2001/REC-SVG-20010904/DTD/svg10.dtd">
<svg version="1.0" xmlns="http://www.w3.org/2000/svg"
 width="500.000000pt" height="500.000000pt" viewBox="0 0 500.000000 500.000000"
 preserveAspectRatio="xMidYMid meet">

<g transform="translate(0.000000,500.000000) scale(0.100000,-0.100000)"
fill="#2f7a1a" stroke="none">
<path d="M2340 3595 c-162 -33 -398 -145 -430 -205 -16 -30 -12 -75 11 -104
31 -40 81 -36 158 14 155 100 259 132 431 133 170 0 300 -41 443 -139 61 -42
107 -45 142 -9 27 26 33 72 15 105 -22 42 -200 141 -320 179 -133 42 -317 53
-450 26z"/>
<path d="M2435 3293 c-95 -13 -228 -68 -280 -117 -29 -28 -35 -41 -35 -74 0
-84 83 -105 172 -44 63 43 114 62 186 69 80 8 176 -17 244 -64 83 -58 153 -53
178 13 22 58 -33 120 -147 168 -115 48 -213 63 -318 49z"/>
<path d="M1821 3110 c-40 -9 -133 -98 -196 -185 -120 -168 -195 -397 -195
-597 0 -88 16 -128 57 -147 57 -26 132 -3 151 46 6 15 13 71 16 123 7 119 34
216 92 333 62 123 95 163 140 172 51 9 73 24 95 67 24 47 24 69 0 117 -32 62
-90 88 -160 71z"/>
<path d="M3122 3110 c-72 -17 -116 -95 -93 -169 14 -47 47 -76 97 -85 47 -9
82 -49 144 -168 59 -112 88 -217 96 -343 3 -49 10 -103 16 -118 20 -51 91 -72
148 -42 42 22 60 63 60 140 0 239 -111 521 -272 691 -80 85 -131 109 -196 94z"/>
<path d="M2465 2990 c-67 -20 -122 -111 -110 -179 28 -154 223 -187 297 -51
39 70 8 179 -61 214 -38 20 -91 26 -126 16z"/>
<path d="M2242 2624 c-100 -22 -112 -31 -171 -130 l-54 -91 -74 5 c-84 5 -123
-11 -123 -53 0 -42 33 -65 92 -65 l52 0 -41 -42 c-64 -66 -66 -78 -42 -241 11
-78 27 -156 34 -173 28 -67 180 -173 231 -160 21 6 24 12 24 56 l0 50 340 0
340 0 0 -49 c0 -68 18 -72 108 -27 75 38 147 108 156 154 4 15 15 87 26 160
23 150 19 170 -40 227 -17 16 -30 32 -30 37 0 4 22 8 48 8 55 0 82 20 82 62 0
47 -30 61 -118 56 l-78 -4 -33 60 c-69 127 -81 136 -204 162 -64 13 -71 13
-95 -4 -48 -33 -96 -47 -163 -47 -55 0 -76 5 -129 33 -34 17 -66 32 -69 31 -3
-1 -35 -7 -69 -15z m540 -115 c19 -8 118 -171 118 -193 0 -8 -765 -8 -773 0
-10 10 89 187 109 195 30 12 520 11 546 -2z m-667 -347 c68 -19 93 -50 76 -95
-14 -36 -33 -38 -149 -12 -53 12 -80 75 -46 109 19 20 42 19 119 -2z m911 -10
c16 -33 3 -74 -27 -89 -14 -7 -51 -15 -82 -19 -47 -6 -61 -4 -77 11 -21 19
-26 51 -11 74 10 16 126 51 161 48 14 -1 29 -12 36 -25z m-461 2 c48 -32 53
-109 7 -144 -61 -49 -152 -7 -152 70 0 70 85 114 145 74z m-352 -235 c9 -12
17 -30 17 -40 0 -17 -8 -19 -91 -19 -50 0 -99 5 -110 10 -19 11 -27 59 -11 74
4 5 45 5 92 2 70 -5 88 -10 103 -27z m795 -7 c4 -42 -21 -52 -129 -52 l-79 0
0 29 c0 47 32 60 150 57 54 -1 55 -1 58 -34z"/>
<path d="M1665 2010 c-11 -5 -43 -9 -70 -9 -55 -1 -95 -22 -95 -50 0 -9 17
-53 39 -97 l38 -80 -30 -41 c-49 -69 -39 -144 26 -183 41 -25 78 -25 127 0
l40 20 43 -39 c80 -74 224 -158 341 -199 286 -102 557 -94 832 25 90 39 208
111 255 155 65 62 63 61 103 37 27 -16 47 -20 76 -16 112 15 147 127 67 215
l-21 22 36 73 c47 92 51 109 34 132 -10 14 -32 21 -77 26 -35 4 -85 11 -110
14 -66 10 -96 -18 -110 -105 -17 -111 -42 -147 -159 -241 -267 -215 -622 -246
-960 -82 -77 37 -109 60 -176 127 -77 76 -83 85 -94 141 -6 33 -13 72 -16 87
-8 42 -48 78 -86 77 -18 0 -42 -4 -53 -9z"/>
</g>
</svg>
